HIERARCHY
ROOT hip
{
	OFFSET 0.000000 0.000000 0.000000 
	CHANNELS 6 Xposition Yposition Zposition Xrotation Zrotation Yrotation
	JOINT abdomen
	{
		OFFSET 0.000000 3.402643 0.000000 
		CHANNELS 3 Xrotation Zrotation Yrotation
		JOINT chest
		{
			OFFSET 0.000000 8.438565 -0.680529 
			CHANNELS 3 Xrotation Zrotation Yrotation
			JOINT neck
			{
				OFFSET 0.000000 10.207942 -0.272212 
				CHANNELS 3 Xrotation Zrotation Yrotation
				JOINT head
				{
					OFFSET 0.000000 3.130431 0.000000 
					CHANNELS 3 Xrotation Zrotation Yrotation
					End Site
					{
						OFFSET 0.000000 3.130435 0.000000 
					}
				}
			}
			JOINT lCollar
			{
				OFFSET 3.470700 6.669187 -0.816635 
				CHANNELS 3 Yrotation Zrotation Xrotation
				JOINT lShldr
				{
					OFFSET 3.198488 0.000000 0.000000 
					CHANNELS 3 Zrotation Yrotation Xrotation
					JOINT lForeArm
					{
						OFFSET 10.139888 0.000000 0.000000 
						CHANNELS 3 Yrotation Zrotation Xrotation
						JOINT lHand
						{
							OFFSET 8.370511 0.000000 0.000000 
							CHANNELS 3 Zrotation Yrotation Xrotation
							End Site
							{
								OFFSET 4.083176 0.000000 0.000000 
							}
						}
					}
				}
			}
			JOINT rCollar
			{
				OFFSET -3.470700 6.669187 -0.816635 
				CHANNELS 3 Yrotation Zrotation Xrotation
				JOINT rShldr
				{
					OFFSET -3.198488 0.000000 0.000000 
					CHANNELS 3 Zrotation Yrotation Xrotation
					JOINT rForeArm
					{
						OFFSET -10.139888 0.000000 0.000000 
						CHANNELS 3 Yrotation Zrotation Xrotation
						JOINT rHand
						{
							OFFSET -8.370511 0.000000 0.000000 
							CHANNELS 3 Zrotation Yrotation Xrotation
							End Site
							{
								OFFSET -4.083176 0.000000 0.000000 
							}
						}
					}
				}
			}
		}
	}
	JOINT lThigh
	{
		OFFSET 5.308129 -1.633274 1.361059 
		CHANNELS 3 Xrotation Zrotation Yrotation
		JOINT lShin
		{
			OFFSET -2.041588 -20.007561 0.000000 
			CHANNELS 3 Xrotation Zrotation Yrotation
			JOINT lFoot
			{
				OFFSET 0.000000 -19.190928 -1.224953 
				CHANNELS 3 Xrotation Yrotation Zrotation
				End Site
				{
					OFFSET 0.000000 -2.449906 4.627600 
				}
			}
		}
	}
	JOINT rThigh
	{
		OFFSET -5.308129 -1.633274 1.361059 
		CHANNELS 3 Xrotation Zrotation Yrotation
		JOINT rShin
		{
			OFFSET 2.041588 -20.007561 0.000000 
			CHANNELS 3 Xrotation Zrotation Yrotation
			JOINT rFoot
			{
				OFFSET 0.000000 -19.190928 -1.224953 
				CHANNELS 3 Xrotation Yrotation Zrotation
				End Site
				{
					OFFSET 0.000000 -2.449906 4.627600 
				}
			}
		}
	}
}
MOTION
Frames: 19
Frame Time: 0.033333
-13.177894 179.426178 -53.597042 -9.627316 20.967255 88.033318 71.486092 -5.368069 8.641410 -20.839844 0.000000 0.000000 -22.930973 -4.282293 -4.386306 -2.520846 -1.255050 0.218350 -4.754607 -0.109226 -0.002657 2.764541 19.578848 -20.071350 -0.399832 -9.807789 -24.585644 -13.825734 -12.098776 -47.437908 4.754607 0.109226 -0.002676 29.716028 -55.984318 -12.331863 49.759277 13.599607 -17.359838 -14.085421 -29.663536 -38.254471 -43.230194 47.992256 20.603920 126.079094 -10.993191 -24.248898 26.391825 -15.484211 -0.584445 -62.478951 -19.853460 1.677854 41.071884 0.400441 0.464544 25.991858 -5.646646 5.207178 
-13.040366 179.433777 -53.484310 -9.480628 20.637194 88.314117 71.128883 -5.182574 8.457554 -20.839844 0.000000 0.000000 -22.936403 -4.308106 -4.183380 -2.520846 -1.255050 0.218350 -4.754607 -0.109226 -0.002657 2.963119 19.629061 -19.695000 -0.491299 -9.915637 -24.340126 -14.006567 -12.018538 -47.939590 4.754607 0.109226 -0.002676 29.708591 -56.088608 -12.126733 49.424084 13.770826 -16.500593 -14.222460 -30.323574 -37.279953 -43.747700 47.884876 20.399076 126.136353 -11.031127 -24.004086 26.683985 -15.100224 -0.647551 -62.618408 -19.568064 1.887364 40.960690 0.156227 0.509113 26.360395 -5.854531 5.354741 
-12.931060 179.442902 -53.378216 -9.390411 20.361794 88.534828 70.911575 -5.108402 8.305508 -20.839844 0.000000 0.000000 -23.236862 -4.290138 -4.058839 -2.520846 -1.255050 0.218350 -4.754607 -0.109226 -0.002657 3.027035 20.104364 -19.655710 -0.544638 -10.009014 -24.352282 -13.655971 -11.705680 -47.833282 4.754607 0.109226 -0.002676 29.905262 -56.156498 -12.200858 49.439342 13.754087 -16.095720 -14.467752 -30.575705 -36.555626 -44.306541 47.802200 20.141809 126.131699 -11.021996 -23.789442 26.949743 -14.773783 -0.819896 -62.702305 -19.306042 1.896168 40.881912 -0.126897 0.425319 26.634981 -5.942936 5.476731 
-12.851806 179.451538 -53.294460 -9.383927 20.255810 88.603470 70.911995 -5.244218 8.257667 -20.839844 0.000000 0.000000 -23.921787 -4.127542 -4.220401 -2.520846 -1.255050 0.218350 -4.754607 -0.109226 -0.002657 2.909468 20.355610 -19.955254 -0.339716 -9.713216 -24.650822 -13.240406 -11.452546 -47.437057 4.754607 0.109226 -0.002676 30.197462 -56.260048 -12.426962 49.812866 13.678080 -16.224865 -14.604156 -30.262369 -36.454762 -44.558002 47.855114 20.006893 126.093803 -10.982882 -23.764725 27.038782 -14.807254 -0.784380 -62.503757 -18.953844 1.756280 40.745590 -0.556508 0.181460 26.476324 -6.034074 6.151845 
-12.776114 179.452576 -53.230465 -9.435298 20.243380 88.555389 70.900322 -5.290688 8.183414 -20.839844 0.000000 0.000000 -24.535784 -3.916409 -4.386893 -2.520846 -1.255050 0.218350 -4.754607 -0.109226 -0.002657 2.952860 20.311508 -19.924843 -0.345783 -9.477472 -24.812010 -13.588367 -11.585660 -47.701370 4.754607 0.109226 -0.002676 30.418459 -56.202106 -12.449807 49.843643 13.740397 -16.079506 -14.224554 -30.331747 -36.414978 -44.628605 47.977093 19.978794 126.090729 -10.981397 -23.843447 27.087908 -14.867372 -0.431692 -62.313400 -18.828068 1.605182 40.740479 -0.634634 0.008174 26.089233 -6.092205 6.420028 
-12.696509 179.447998 -53.183773 -9.470626 20.309124 88.505417 70.814186 -5.110527 8.031007 -20.839844 0.000000 0.000000 -25.072298 -3.613065 -4.379870 -2.520846 -1.255050 0.218350 -4.754607 -0.109226 -0.002657 3.434528 20.384792 -19.474380 -0.584149 -10.030060 -24.513596 -13.822891 -11.805064 -48.316864 4.754607 0.109226 -0.002676 30.387218 -56.025017 -12.318796 49.609627 13.834382 -16.011953 -13.977888 -30.591764 -36.587116 -44.520473 47.985409 20.070230 126.144882 -11.011847 -23.937981 27.068375 -14.903601 -0.266540 -62.176266 -19.198931 1.397125 40.964455 -0.058507 0.083900 25.746008 -5.791406 5.776913 
-12.638175 179.454590 -53.141644 -9.471816 20.328386 88.316856 70.827065 -4.988743 7.903749 -20.839844 0.000000 0.000000 -25.852718 -3.330657 -4.286474 -2.520846 -1.255050 0.218350 -4.754607 -0.109226 -0.002657 3.532033 20.427757 -19.297005 -0.629159 -10.523211 -24.310673 -13.445626 -11.823218 -48.483017 4.754607 0.109226 -0.002676 30.084784 -55.823746 -12.083134 49.406788 13.952756 -16.279623 -14.122798 -30.590324 -37.176052 -44.323948 47.904182 20.176994 126.158592 -11.041962 -24.018112 27.089231 -14.971466 -0.148431 -62.105907 -19.530420 1.271740 41.105133 0.410031 0.362812 25.673010 -5.327187 5.010161 
-12.611274 179.466766 -53.097469 -9.458449 20.280788 87.985970 71.052582 -5.009611 7.770656 -20.839844 0.000000 0.000000 -26.905645 -3.281067 -4.123646 -2.520846 -1.255050 0.218350 -4.754607 -0.109226 -0.002657 2.999642 20.239687 -19.393745 -0.636235 -10.329540 -24.546858 -13.424870 -11.902604 -48.639263 4.754607 0.109226 -0.002676 29.724188 -55.491486 -11.619830 49.082096 14.280395 -16.134977 -14.116665 -30.661621 -37.533997 -44.238499 47.841648 20.177973 126.186409 -11.035056 -24.059181 27.079231 -15.061926 -0.123078 -62.156128 -19.443121 1.364392 41.170605 0.244197 0.666136 25.642872 -5.097257 4.762207 
-12.603507 179.468323 -53.062435 -9.484290 20.192408 87.569481 71.131874 -5.053864 7.648882 -20.839844 0.000000 0.000000 -27.711033 -3.430122 -3.912632 -2.520846 -1.255050 0.218350 -4.754607 -0.109226 -0.002657 3.032146 20.176620 -19.060381 -0.795783 -10.588132 -24.559273 -14.108336 -12.130431 -49.393402 4.754607 0.109226 -0.002676 29.525753 -55.336628 -11.370913 48.992550 14.461363 -15.713810 -14.092341 -30.889257 -37.187519 -44.206364 47.854534 20.199495 126.224983 -11.031059 -24.101635 27.021441 -15.123663 -0.244044 -62.238194 -19.148594 1.494846 41.223671 -0.198642 0.656821 25.477226 -5.220794 4.855696 
-12.621879 179.470337 -53.049236 -9.656887 19.951141 86.943619 70.798546 -5.096167 7.829332 -20.839844 0.000000 0.000000 -27.950279 -3.620749 -3.718422 -2.520846 -1.255050 0.218350 -4.754607 -0.109226 -0.002657 3.401666 20.185553 -18.591650 -0.954687 -11.208996 -24.234657 -14.739394 -12.302201 -50.007141 4.754607 0.109226 -0.002676 29.246309 -55.544525 -11.478654 49.311436 14.296173 -15.843679 -14.403185 -30.759121 -36.917389 -44.394726 48.036884 20.167124 126.267044 -11.044619 -24.150057 26.783285 -15.168174 -0.471479 -62.340687 -18.554008 1.661333 41.031841 -0.741985 0.485927 25.507872 -5.726899 5.326019 
-12.661887 179.473877 -53.052807 -9.914385 19.743826 86.162643 70.553825 -5.140907 8.136842 -20.839844 0.000000 0.000000 -28.019066 -3.644183 -3.679037 -2.520846 -1.255050 0.218350 -4.754607 -0.109226 -0.002657 2.976854 20.001371 -18.948097 -0.880178 -10.982098 -24.458014 -14.770781 -12.317863 -49.552280 4.754607 0.109226 -0.002676 28.788544 -55.585789 -11.351945 49.234268 14.257058 -16.053324 -14.608115 -30.311426 -37.215057 -44.550621 48.250767 20.145290 126.293015 -11.029346 -24.194212 26.223679 -15.341006 -0.913070 -62.339813 -17.899763 1.832701 40.844765 -1.200965 0.375976 25.643930 -6.011181 5.964143 
-12.696563 179.475922 -53.062435 -10.122136 19.741810 85.476532 70.654305 -5.183766 8.262746 -20.839844 0.000000 0.000000 -28.025106 -3.402396 -3.596714 -2.520846 -1.255050 0.218350 -4.754607 -0.109226 -0.002657 2.080201 19.777058 -19.701878 -0.558499 -10.227735 -24.999516 -14.543049 -12.148684 -48.643757 4.754607 0.109226 -0.002676 28.411270 -55.360210 -11.051065 48.963753 14.423452 -16.190973 -14.379102 -30.078859 -37.871895 -44.306286 48.407089 20.240374 126.286575 -10.963660 -24.278267 25.659431 -15.544147 -1.037056 -62.258915 -17.889174 1.704210 40.949451 -0.966606 0.413377 25.532207 -5.782298 5.906272 
-12.734336 179.497253 -53.077663 -10.303209 19.808598 84.853851 70.721031 -5.281398 8.353184 -20.839844 0.000000 0.000000 -27.952730 -3.109610 -3.205431 -2.520846 -1.255050 0.218350 -4.754607 -0.109226 -0.002657 1.546803 19.549334 -20.031473 -0.320625 -9.755387 -25.291393 -14.493274 -12.017804 -48.365185 4.754607 0.109226 -0.002676 28.304667 -55.412285 -11.206093 49.220348 14.278030 -16.962082 -14.080867 -29.998369 -38.743717 -43.972019 48.488819 20.353168 126.277985 -10.914742 -24.232273 25.256487 -15.519110 -0.865914 -62.087654 -18.261217 1.415619 41.119774 -0.367731 0.476095 25.343397 -5.382101 5.514188 
-12.797690 179.524139 -53.099499 -10.406008 19.947245 84.385735 70.812569 -5.397033 8.386310 -20.839844 0.000000 0.000000 -28.127642 -2.911463 -2.710750 -2.520846 -1.255050 0.218350 -4.754607 -0.109226 -0.002657 1.408513 19.276596 -20.098005 -0.363896 -9.505564 -25.507856 -14.737955 -12.064688 -48.627796 4.754607 0.109226 -0.002676 28.578581 -55.564022 -11.764416 49.597198 13.819682 -17.809210 -14.219207 -30.039005 -39.155174 -43.728485 48.421906 20.411592 126.293343 -10.855284 -24.023567 25.006512 -15.242387 -0.840441 -61.778366 -18.425556 1.488972 41.188271 -0.214755 0.552543 25.210705 -5.354410 5.533369 
-12.881461 179.541412 -53.130993 -10.415007 20.081713 84.036926 70.977341 -5.454845 8.059774 -20.839844 0.000000 0.000000 -28.419945 -2.647326 -2.290199 -2.520846 -1.255050 0.218350 -4.754607 -0.109226 -0.002657 1.621109 19.162643 -20.108944 -0.416023 -9.350825 -25.757696 -15.216386 -11.988435 -49.049984 4.754607 0.109226 -0.002676 28.593174 -55.244877 -11.806090 49.505974 13.748792 -17.996300 -14.798965 -29.961319 -39.240402 -43.484146 48.255230 20.449030 126.284531 -10.843713 -23.913950 24.957085 -15.116522 -0.991970 -61.588272 -18.407393 1.846903 41.286457 -0.419845 0.687433 25.104879 -5.774728 5.527782 
-12.973601 179.562225 -53.186825 -10.477268 20.078012 83.557823 70.957642 -5.515984 7.718537 -20.839844 0.000000 0.000000 -28.244528 -2.401251 -1.913558 -2.520846 -1.255050 0.218350 -4.754607 -0.109226 -0.002657 2.005867 19.284388 -20.048281 -0.352167 -9.330407 -26.005318 -15.620152 -11.988697 -49.517948 4.754607 0.109226 -0.002676 28.061253 -54.740265 -11.339521 49.161652 14.038786 -17.932451 -15.118496 -29.596268 -39.642490 -43.164162 48.251518 20.617079 126.236252 -10.878733 -24.042145 24.807997 -15.406730 -1.439935 -61.547642 -18.397520 1.942604 41.278648 -0.566244 0.800089 25.033928 -5.891261 5.151772 
-13.062652 179.568817 -53.259411 -10.638680 20.000851 83.024422 70.874069 -5.521835 7.794416 -20.839844 0.000000 0.000000 -27.656820 -2.443284 -1.455128 -2.520846 -1.255050 0.218350 -4.754607 -0.109226 -0.002657 2.173330 19.376455 -20.033010 -0.329393 -9.361072 -26.146236 -15.704731 -12.354156 -49.670891 4.754607 0.109226 -0.002676 27.748873 -54.654377 -11.280300 49.287552 14.023205 -18.107777 -14.914913 -29.523186 -39.876263 -42.998116 48.437069 20.716267 126.255119 -10.869012 -24.324263 24.338242 -15.943690 -2.000993 -61.578690 -18.495327 1.739642 41.238014 -0.576086 0.833898 24.962652 -5.573657 4.819317 
-13.138450 179.555115 -53.321880 -10.938060 19.963263 82.524002 70.906517 -5.476006 8.107712 -20.839844 0.000000 0.000000 -27.298063 -2.478260 -1.152852 -2.520846 -1.255050 0.218350 -4.754607 -0.109226 -0.002657 2.280899 19.437572 -20.060089 -0.376286 -9.451428 -25.952349 -15.313588 -12.705030 -49.293655 4.754607 0.109226 -0.002676 27.758118 -54.880756 -11.707642 49.864300 13.652282 -18.813129 -14.451992 -29.456776 -40.275696 -43.143673 48.610733 20.601330 126.318840 -10.738503 -24.361347 24.112272 -16.077812 -1.889511 -61.615013 -18.436161 1.646443 41.345543 -0.703043 0.744090 24.828644 -5.504390 5.095373 
-13.211501 179.549011 -53.375179 -11.221439 20.137924 82.020561 71.135475 -5.501647 8.332431 -20.839844 0.000000 0.000000 -27.395781 -2.213393 -1.109620 -2.520846 -1.255050 0.218350 -4.754607 -0.109226 -0.002657 2.502779 19.572397 -19.971951 -0.423767 -9.599762 -25.452269 -14.508682 -12.651010 -48.783779 4.754607 0.109226 -0.002676 27.401911 -54.946758 -11.877052 50.036041 13.352952 -19.645590 -14.221832 -28.792730 -41.190960 -43.053448 48.702103 20.602795 126.318390 -10.650727 -24.148735 24.341085 -15.730482 -1.186769 -61.441330 -18.085274 1.668246 41.434883 -1.191277 0.543612 24.761189 -5.760960 5.741428 
